<svg xmlns="http://www.w3.org/2000/svg" viewBox="0 0 635.0663 115.0681"><defs><style>.cls-1{fill:#2379d0;}</style></defs><g id="Layer_2" data-name="Layer 2"><g id="Layer_1-2" data-name="Layer 1"><path class="cls-1" d="M.8649,57.43V26.2931A26.3228,26.3228,0,0,0,27.158,0H58.2947a57.084,57.084,0,0,1-4.52,22.3591,57.2157,57.2157,0,0,1-12.3013,18.25A57.2179,57.2179,0,0,1,23.2239,52.91,57.0852,57.0852,0,0,1,.8649,57.43Z"/><path class="cls-1" d="M57.43,57.43V26.2931A26.3229,26.3229,0,0,0,83.7229,0H114.86A57.0857,57.0857,0,0,1,110.34,22.3591a57.2157,57.2157,0,0,1-12.3013,18.25A57.219,57.219,0,0,1,79.7888,52.91,57.0855,57.0855,0,0,1,57.43,57.43Z"/><path class="cls-1" d="M87.7015,114.86H56.5649a57.3949,57.3949,0,0,1,57.43-57.43V88.5665A26.3228,26.3228,0,0,0,87.7015,114.86Z"/><path class="cls-1" d="M31.1366,114.86H0A57.395,57.395,0,0,1,57.43,57.43V88.5665A26.3229,26.3229,0,0,0,31.1366,114.86Z"/><path d="M137.5287,2.2229H183.058q12.3324,0,21.4878,4.8085a33.8621,33.8621,0,0,1,14.0712,13.501A40.0168,40.0168,0,0,1,223.534,40.58a39.1625,39.1625,0,0,1-4.9985,20.021A33.77,33.77,0,0,1,204.1922,73.94q-9.3449,4.7262-21.895,4.7265H153.9906V57.9118H177.516a22.42,22.42,0,0,0,10.3227-2.1728,14.8148,14.8148,0,0,0,6.3838-6.0308A18.4844,18.4844,0,0,0,196.369,40.58a18.4879,18.4879,0,0,0-2.1465-9.1275,14.1956,14.1956,0,0,0-6.3838-5.9218,23.42,23.42,0,0,0-10.3227-2.0645h-13.8v90.0259H137.5287Z"/><path d="M256.14,113.4924h-25.916V2.2229H256.14Z"/><path d="M310.0663,78.802q-5.5152.3-9.0459.625a13.3542,13.3542,0,0,0-7.8238,3.07,8.5256,8.5256,0,0,0-2.8794,6.6553,8.08,8.08,0,0,0,1.3584,4.727,8.192,8.192,0,0,0,3.8028,2.9336,15.1306,15.1306,0,0,0,5.65.978,17.6077,17.6077,0,0,0,7.9868-1.7929,14.104,14.104,0,0,0,5.65-4.9712,13.0216,13.0216,0,0,0,2.0644-7.253l-.1626-27.22a8.7621,8.7621,0,0,0-1.3857-4.9985,8.5333,8.5333,0,0,0-3.939-3.124,15.6718,15.6718,0,0,0-6.0307-1.06,16.8962,16.8962,0,0,0-6.0035.978,10.1721,10.1721,0,0,0-4.21,2.8794,9.5457,9.5457,0,0,0-2.1191,4.6182H268.8021A26.56,26.56,0,0,1,273.828,42.156a29.5441,29.5441,0,0,1,12.55-9.6709q8.1217-3.531,19.4233-3.5313a51.5034,51.5034,0,0,1,18.8257,3.2324,29.43,29.43,0,0,1,13.0933,9.5625A24.29,24.29,0,0,1,342.5292,56.88v56.6128H318.1346v-11.627h-.6518a23.1281,23.1281,0,0,1-13.773,11.5728,33.7227,33.7227,0,0,1-10.5132,1.521,34.9872,34.9872,0,0,1-14.289-2.7437,21.4192,21.4192,0,0,1-9.6978-8.3125,25.0562,25.0562,0,0,1-3.5044-13.61q0-12.93,8.5025-19.0972T296.62,64.16q3.26-.1626,8.394-.4073t9.1006-.4077q2.064-.1077,3.64-.1626l.163,15.2124Q315.58,78.5039,310.0663,78.802Z"/><path d="M378.1239,113.4924h-25.916V30.04h24.6665V45.2531h.9233a23.9763,23.9763,0,0,1,5.46-8.72,24.3136,24.3136,0,0,1,8.6655-5.6235,30.7718,30.7718,0,0,1,11.1924-1.9556,29.3419,29.3419,0,0,1,15.2124,3.8848,25.9293,25.9293,0,0,1,10.1328,11.0019A36.3608,36.3608,0,0,1,432.02,60.3024v53.19h-25.916V65.301a18.9409,18.9409,0,0,0-1.6026-8.0952,11.316,11.316,0,0,0-4.7-5.1885,14.5667,14.5667,0,0,0-7.3345-1.7661,15.0782,15.0782,0,0,0-7.5249,1.82,12.41,12.41,0,0,0-5.0253,5.3516,18.2723,18.2723,0,0,0-1.793,8.3667Z"/><path d="M512.4374,32.4309a18.9668,18.9668,0,0,0-7.606-6.438,24.9572,24.9572,0,0,0-10.8662-2.2549,24.6618,24.6618,0,0,0-14.126,3.9932A25.3814,25.3814,0,0,0,470.7113,39.44a47.8752,47.8752,0,0,0-3.2051,18.4179q0,11.03,3.2051,18.69a23.5539,23.5539,0,0,0,23.0908,15.43,25.71,25.71,0,0,0,10.6758-2.1187,19.4241,19.4241,0,0,0,7.6338-5.9766,21.3234,21.3234,0,0,0,3.9116-9.2905l26.5137.1631a43.28,43.28,0,0,1-7.1719,19.5317,45.2988,45.2988,0,0,1-16.87,14.9683q-10.7858,5.76-25.1822,5.7593a53.7764,53.7764,0,0,1-27.0571-6.7642,47.5952,47.5952,0,0,1-18.7168-19.6406q-6.8188-12.8767-6.8183-30.7515t6.9-30.8056A47.6892,47.6892,0,0,1,466.4193,7.4113,53.7968,53.7968,0,0,1,493.3133.7019a57.0444,57.0444,0,0,1,24.0684,4.89,41.9992,41.9992,0,0,1,17.2227,14.2891A46.9125,46.9125,0,0,1,542.537,42.319H516.0233A21.901,21.901,0,0,0,512.4374,32.4309Z"/><path d="M570.766,109.6892a36.3442,36.3442,0,0,1-14.5606-15.104,48.0036,48.0036,0,0,1-5.08-22.5474,48.1729,48.1729,0,0,1,5.08-22.5742A36.3138,36.3138,0,0,1,570.766,34.3322q9.48-5.3781,22.3569-5.3784,12.8219,0,22.33,5.3784a36.1042,36.1042,0,0,1,14.5605,15.1314,48.3913,48.3913,0,0,1,5.0528,22.5742,48.2211,48.2211,0,0,1-5.0528,22.5474,36.1339,36.1339,0,0,1-14.5605,15.104q-9.5083,5.3789-22.33,5.3789Q580.2469,115.0681,570.766,109.6892Zm30.8056-17.1958a18.5091,18.5091,0,0,0,5.27-8.2852,38.1243,38.1243,0,0,0,1.82-12.333,38.13,38.13,0,0,0-1.82-12.3335,18.7181,18.7181,0,0,0-5.27-8.3125,12.2358,12.2358,0,0,0-8.2856-2.9883,13.0158,13.0158,0,0,0-8.5571,2.9341,17.8783,17.8783,0,0,0-5.3785,8.2856,38.5252,38.5252,0,0,0-1.82,12.4146,38.083,38.083,0,0,0,1.82,12.333,18.0578,18.0578,0,0,0,5.3785,8.2852,12.9388,12.9388,0,0,0,8.5571,2.9614A12.296,12.296,0,0,0,601.5716,92.4934Z"/></g></g></svg>