<svg xmlns="http://www.w3.org/2000/svg" viewBox="0 0 635.066 115.068"><g data-name="Layer 2"><g data-name="Layer 1"><path d="M.865 57.43V26.293A26.323 26.323 0 0027.158 0h31.137a57.084 57.084 0 01-4.52 22.36 57.216 57.216 0 01-12.302 18.25 57.218 57.218 0 01-18.25 12.3A57.085 57.085 0 01.866 57.43zm56.565 0V26.293A26.323 26.323 0 0083.723 0h31.137a57.086 57.086 0 01-4.52 22.36 57.216 57.216 0 01-12.301 18.25 57.219 57.219 0 01-18.25 12.3 57.086 57.086 0 01-22.359 4.52zm30.271 57.43H56.566a57.395 57.395 0 0157.43-57.43v31.137A26.323 26.323 0 0087.7 114.86zm-56.564 0H0a57.395 57.395 0 0157.43-57.43v31.137a26.323 26.323 0 00-26.293 26.293z" fill="#2379d0"/><path d="M137.529 2.223h45.529q12.332 0 21.488 4.808a33.862 33.862 0 0114.071 13.501 40.017 40.017 0 014.917 20.048 39.163 39.163 0 01-4.998 20.021 33.77 33.77 0 01-14.344 13.339q-9.345 4.726-21.895 4.726h-28.306V57.912h23.525a22.42 22.42 0 0010.323-2.173 14.815 14.815 0 006.383-6.03 18.484 18.484 0 002.147-9.129 18.488 18.488 0 00-2.147-9.127 14.196 14.196 0 00-6.383-5.922 23.42 23.42 0 00-10.323-2.065h-13.8v90.026h-26.187zM256.14 113.492h-25.916V2.222h25.916zm53.926-34.69q-5.515.3-9.046.625a13.354 13.354 0 00-7.823 3.07 8.526 8.526 0 00-2.88 6.655 8.08 8.08 0 001.359 4.727 8.192 8.192 0 003.802 2.934 15.13 15.13 0 005.65.978 17.608 17.608 0 007.987-1.793 14.104 14.104 0 005.65-4.971 13.022 13.022 0 002.065-7.253l-.163-27.22a8.762 8.762 0 00-1.386-4.999 8.533 8.533 0 00-3.939-3.124 15.672 15.672 0 00-6.03-1.06 16.896 16.896 0 00-6.004.978 10.172 10.172 0 00-4.21 2.88 9.546 9.546 0 00-2.119 4.618h-24.177a26.56 26.56 0 015.026-13.691 29.544 29.544 0 0112.55-9.67q8.122-3.532 19.423-3.532a51.503 51.503 0 0118.826 3.232 29.43 29.43 0 0113.093 9.563 24.29 24.29 0 014.81 15.131v56.613h-24.395v-11.627h-.652a23.128 23.128 0 01-13.773 11.573 33.723 33.723 0 01-10.513 1.52 34.987 34.987 0 01-14.29-2.743 21.42 21.42 0 01-9.697-8.313 25.056 25.056 0 01-3.505-13.61q0-12.93 8.503-19.097t22.412-7.036q3.26-.163 8.394-.407t9.1-.408q2.065-.108 3.64-.163l.164 15.213q-2.338.109-7.852.407zm68.058 34.69h-25.916V30.04h24.666v15.213h.924a23.976 23.976 0 015.46-8.72 24.314 24.314 0 018.665-5.623 30.772 30.772 0 0111.193-1.956 29.342 29.342 0 0115.212 3.885 25.93 25.93 0 0110.133 11.002 36.36 36.36 0 013.559 16.461v53.19h-25.916V65.301a18.94 18.94 0 00-1.603-8.095 11.316 11.316 0 00-4.7-5.189 14.567 14.567 0 00-7.334-1.766 15.078 15.078 0 00-7.525 1.82 12.41 12.41 0 00-5.025 5.352 18.272 18.272 0 00-1.793 8.367zM512.437 32.43a18.967 18.967 0 00-7.606-6.437 24.957 24.957 0 00-10.866-2.255 24.662 24.662 0 00-14.126 3.993 25.381 25.381 0 00-9.128 11.709 47.875 47.875 0 00-3.205 18.418q0 11.03 3.205 18.69a23.554 23.554 0 0023.091 15.43 25.71 25.71 0 0010.676-2.119 19.424 19.424 0 007.634-5.976 21.323 21.323 0 003.911-9.29l26.514.162a43.28 43.28 0 01-7.172 19.532 45.299 45.299 0 01-16.87 14.968q-10.786 5.76-25.182 5.76a53.776 53.776 0 01-27.057-6.765 47.595 47.595 0 01-18.717-19.64q-6.819-12.877-6.818-30.752t6.9-30.805A47.69 47.69 0 01466.419 7.41 53.797 53.797 0 01493.313.7a57.044 57.044 0 0124.069 4.89 42 42 0 0117.222 14.29 46.913 46.913 0 017.933 22.438h-26.514a21.901 21.901 0 00-3.586-9.888zm58.329 77.26a36.344 36.344 0 01-14.56-15.105 48.004 48.004 0 01-5.08-22.547 48.173 48.173 0 015.08-22.574 36.314 36.314 0 0114.56-15.132q9.48-5.378 22.357-5.378 12.822 0 22.33 5.378a36.104 36.104 0 0114.56 15.132 48.391 48.391 0 015.053 22.574 48.221 48.221 0 01-5.053 22.547 36.134 36.134 0 01-14.56 15.104q-9.508 5.38-22.33 5.38-12.876 0-22.357-5.38zm30.806-17.197a18.51 18.51 0 005.27-8.285 38.124 38.124 0 001.82-12.333 38.13 38.13 0 00-1.82-12.333 18.718 18.718 0 00-5.27-8.313 12.236 12.236 0 00-8.286-2.988 13.016 13.016 0 00-8.557 2.934 17.878 17.878 0 00-5.379 8.286 38.525 38.525 0 00-1.82 12.414 38.083 38.083 0 001.82 12.333 18.058 18.058 0 005.379 8.285 12.939 12.939 0 008.557 2.962 12.296 12.296 0 008.286-2.962z"/></g></g></svg>